PathFileType	4	(X/Y/Z)	17_2_52_p0_0-920_filt_butterworth.trc
DataRate	CameraRate	NumFrames	NumMarkers	Units	OrigDataRate	OrigDataStartFrame	OrigNumFrames
59.0	59.0	6	27	m	59.0	460	920
Frame#	Time	RHip			RKnee			RAnkle			RBigToe			RSmallToe			RHeel			LHip			LKnee			LAnkle			LBigToe			LSmallToe			LHeel			Neck			Head			Nose			RShoulder			RElbow			RWrist			RThumb			RIndex			RPinky			LShoulder			LElbow			LWrist			LThumb			LIndex			LPinky			
		X1	Y1	Z1	X2	Y2	Z2	X3	Y3	Z3	X4	Y4	Z4	X5	Y5	Z5	X6	Y6	Z6	X7	Y7	Z7	X8	Y8	Z8	X9	Y9	Z9	X10	Y10	Z10	X11	Y11	Z11	X12	Y12	Z12	X13	Y13	Z13	X14	Y14	Z14	X15	Y15	Z15	X16	Y16	Z16	X17	Y17	Z17	X18	Y18	Z18	X19	Y19	Z19	X20	Y20	Z20	X21	Y21	Z21	X22	Y22	Z22	X23	Y23	Z23	X24	Y24	Z24	X25	Y25	Z25	X26	Y26	Z26	X27	Y27	Z27	
460	7.796610169491525	0.25797667458507234	0.4120010981206968	0.8922359710983518	0.24498896514821258	0.5403848697132585	1.3058451143300736	0.22610961565848325	0.6796884278056466	1.6924961183352831	0.24497086976874594	0.5167854401566523	1.7281741620449296	0.3015567789764539	0.5446747020179006	1.7311084194406061	0.19562406358547496	0.7665983434488026	1.7638371372159003	0.06905589082337577	0.3943617146585557	0.8895303577840038	0.04953415577018376	0.5864513773775185	1.3289910018302775	0.04567295706724928	0.6678532313283848	1.725997803703934	0.07026143838216012	0.4558363495392115	1.713962035695011	0.004085344292644748	0.5109286905714044	1.7223026055221902	0.05885205153136269	0.7313190905902962	1.76894281176611	0.17300704675292802	0.3789325211537137	0.3079554541662465	0.1965343108954788	0.28039436761370934	0.07181953307229906	0.14399033953281115	0.26463152297187154	0.20341085044224444	0.3177823747205844	0.38362248705759194	0.4064010252934771	0.37034508089233165	0.39506378312038004	0.6536193828881143	0.34602951917678876	0.3827225446421369	0.9000494812791021	0.27433895330632774	0.38489401497699277	1.0152024900924923	0.28533507752166065	0.40021160957244584	1.0436334207421822	0.32745097663119377	0.46719607201218055	1.0522287842584406	0.011377143719620132	0.38869868232939964	0.3947745036411755	-0.03240272616902505	0.42503665249429967	0.6562765728954874	-0.030079454704947186	0.38103740916756185	0.8899716047313092	-0.00875958520956991	0.434534762791854	1.0025760993471922	-0.0248391286685462	0.3900644695115823	1.006468477217882	-0.0694697464314117	0.4074375848802583	1.002533487821369
461	7.813559322033898	0.2579359226464833	0.41185916551182555	0.8920054262345951	0.244104056248308	0.5361253298325138	1.3052900691795881	0.22463323737514043	0.6856006203812486	1.696944333061727	0.24495921106539686	0.5167570219913584	1.7293663477504206	0.30163706191415884	0.5448924942866409	1.7311702313807675	0.1958627061440478	0.7664572408154718	1.764288398937686	0.0688783362312268	0.39309451238873466	0.8891293686509072	0.04759570479088271	0.5903157423445728	1.3309495455156035	0.04566740645110602	0.6678148250684766	1.7259095899751782	0.0695207847371455	0.4563068177359705	1.7141022559855714	0.003907151839329564	0.5114623731211579	1.7220157673903573	0.05924990580227268	0.7327006399796439	1.7694004768323277	0.17299420381754954	0.3786696534917397	0.3079397426738838	0.19658728413272372	0.2814972380277875	0.07206192746206175	0.14411789544662545	0.26582003162083634	0.20334629785146233	0.31920361798174723	0.3806131319985773	0.4070331519699815	0.3704113924230477	0.3950640698404344	0.6538348421948426	0.345706892475168	0.3815273014602366	0.89909390440816	0.2731813897488401	0.38396130697148023	1.0148833664889338	0.28414770944402146	0.39972390455506757	1.0438037696616271	0.3268099456296897	0.4635093735313612	1.0542503399603824	0.011465757349646822	0.3886854818953848	0.39412473101006523	-0.03246030702064703	0.42501603847892255	0.6561920095276137	-0.030964773617016987	0.3794224951929811	0.8897185765915365	-0.00913678450474201	0.43082732652120054	1.0016917352750496	-0.024900290917895477	0.38388650746960473	1.0061341978313434	-0.06928410789271128	0.40709947562367765	1.0024963380427179
462	7.830508474576271	0.2578622940134155	0.41167171168007005	0.891571204700003	0.24347029059325603	0.5328137551174663	1.3051422956813759	0.2225714982762103	0.6924777191491401	1.701537235937807	0.24516989213453516	0.5168465027836662	1.7298126479300344	0.30164321055175736	0.5450392995901641	1.7312637142052942	0.19603862769751643	0.7662067521968657	1.765483028989742	0.06847131235951259	0.3899888806899767	0.8884603788292783	0.046459233924684	0.5917740757219376	1.331945777571376	0.0456722379753357	0.6677993671822449	1.725878636884441	0.07072745354660298	0.457168629180737	1.714261991749277	0.0039211099122264444	0.5118199210736216	1.72192107147015	0.0598181328362709	0.7350906304513444	1.7703778031935171	0.17303406040340166	0.3785913660490364	0.3079329688438658	0.1968003610775046	0.2839054228881403	0.07190601201603228	0.14410703788257936	0.265897345903879	0.20301638135919348	0.3198086400263518	0.3794814682840507	0.4075634714474695	0.3704313482713021	0.39485834989655855	0.6551978836942709	0.34501098342082737	0.37868434400834095	0.8984942031092646	0.2720043252199116	0.3821641025991617	1.0144442897562864	0.28337996691061873	0.3993288667019561	1.0439182795151924	0.3263345347973138	0.4607742475026008	1.055410021397792	0.011514125375942496	0.38871619414855335	0.393024220588022	-0.03247069239037368	0.425181705746797	0.6561957513419114	-0.03307873267026228	0.37940285956180686	0.8898935383224675	-0.009634735068745542	0.42591679887294537	1.0005422686563696	-0.025076496998030905	0.3766558685017354	1.0048886682166809	-0.06871422113092471	0.4066178260223965	1.002408433327621
463	7.847457627118644	0.25773208896235206	0.4114679277657835	0.8913566261255365	0.24324439098754078	0.5314573545216406	1.3052183115753397	0.2208957655972996	0.6974144083817129	1.7041511443920578	0.2452870964075697	0.5170997521012697	1.7298960460829744	0.3016083809744759	0.5450167864996548	1.7313078879609216	0.1962304816474629	0.766087695933797	1.767136362965077	0.0679368533350222	0.38592849351781844	0.8876345805208012	0.04567078132256358	0.5915281080111174	1.3321767068674006	0.045675921910326336	0.6678014811666072	1.725872721004744	0.07261946707661415	0.45827620901460553	1.7144249617151028	0.004018425511183317	0.5118308318100454	1.7225033395460978	0.06045767684260106	0.7366789304659783	1.771112681987105	0.17308055626027133	0.3786943693171037	0.30793393529265367	0.19735903526773005	0.2873990018899745	0.07149668391314536	0.14402573352649115	0.2657188628604241	0.20222250311841164	0.3199149202778922	0.37943538515758046	0.4082043696631462	0.3704844783668621	0.3945761738530009	0.6575035509090091	0.3440884030614967	0.3742962487129021	0.8987147004410023	0.27097198146480883	0.3789937933027836	1.0140054544467596	0.28312299076872083	0.39912883943660893	1.0439773945151682	0.326215873273707	0.4598979848086297	1.0552137909185162	0.011464242299880549	0.3888283281413572	0.3915124634604201	-0.032409527635366614	0.4254827634797739	0.6562848670378024	-0.0356253554666601	0.3798074130947153	0.890131357467236	-0.010010298077553687	0.42215518167101757	0.9996607794195573	-0.025331372729180547	0.37050765197862384	1.002867495878041	-0.06819057605447319	0.40610211862213846	1.002259627782495
464	7.864406779661017	0.2575697277003492	0.4112901106450849	0.8921894640324979	0.2432564725658361	0.5313863027588128	1.305823556857009	0.2201467460080809	0.6992144022476415	1.7038607431710964	0.24529255350908216	0.5173998004145071	1.729901594292548	0.301576421860021	0.5449064327209431	1.7312904018391948	0.19638803753308842	0.7661016079478529	1.7685352385870998	0.06752523569571721	0.38288491422910975	0.8870257858013918	0.044685426796909025	0.5907051077707824	1.3328538274999266	0.0456712763944635	0.6678139966525136	1.7258727766583268	0.07400356437859551	0.4590512486206102	1.7145337310683404	0.004193148881598795	0.511656844482199	1.7246654573480027	0.06104683965069697	0.7360963746583182	1.7708857459406717	0.17303597255869188	0.3788063383591141	0.3079400093794752	0.1985645252399865	0.29068449205934477	0.0709963322723041	0.1438862342530407	0.26564088547298664	0.20115304765808562	0.31991639937359195	0.3794502298276185	0.40920424942955813	0.37053037041315434	0.3943296114843292	0.6597961692518626	0.3432777705836947	0.36880806593791493	0.8993391690753123	0.2701023489025344	0.3750349635465339	1.0135371373466036	0.2829206221222892	0.39899920718220283	1.0440188103629955	0.3263855217503416	0.4602746658743959	1.0545728550062727	0.011345692007260492	0.388968081836056	0.39001283295641553	-0.03232352264744596	0.4254227085706026	0.6562858051423409	-0.03742246101657936	0.3802273436555079	0.8903001392404066	-0.010156663123937947	0.4207299304314318	0.9993239183820819	-0.025555915246532383	0.3670111114232719	1.0011016225845064	-0.06882626132355588	0.4056931945916498	1.00211865978958
465	7.88135593220339	0.257396572969339	0.4111647444574963	0.8941043248878897	0.24330261458467062	0.5316278511906758	1.3073516766630668	0.22022546713648994	0.6984557965819722	1.7013843905681902	0.24525182777808177	0.5171557161923162	1.7296498804724467	0.30156325858751776	0.5447937744344031	1.7312384543032286	0.19645137888087377	0.7660823112187692	1.7691562383793382	0.06735477395534388	0.38173943123392995	0.8868036077493993	0.04363141515035535	0.5900734754006469	1.3348569591015849	0.04565641222253312	0.6678252751224719	1.7258729556072527	0.07438618970025937	0.45895903751248995	1.714573508486474	0.004427380794875947	0.5115769753046833	1.728384309266431	0.061141266365534526	0.7344968577267487	1.7701304728884235	0.1728698691055163	0.37892207605690426	0.3079563100363194	0.2008026593249237	0.29349537419849425	0.07066308732559132	0.14381695992148424	0.2657216302593767	0.20028383252722798	0.31994569224140584	0.3791594981260801	0.4103567479015845	0.3705822929473964	0.3942074669690479	0.6611779543377059	0.34293298590491933	0.3623582795106387	0.8996443100232205	0.26954487869278254	0.37193012967723327	1.0130748518550974	0.28245949569178047	0.39862197273544997	1.0440858069089323	0.32658591681533367	0.46061988707256896	1.05417502913037	0.011337493358195557	0.38907429700422747	0.38904772733332454	-0.032407377045189624	0.423812178656666	0.6557840772201432	-0.03813505186777031	0.3802526267727063	0.8904608129105277	-0.01015801441301983	0.4209706253863876	0.9994084342225157	-0.025709064012703467	0.36619724173867185	1.0006105004399464	-0.07100437752509774	0.40548256184352893	1.0022195961624665
